<svg width="7" height="7" viewBox="0 0 7 7" fill="none" xmlns="http://www.w3.org/2000/svg">
<path fill-rule="evenodd" clip-rule="evenodd" d="M0.109835 0.109835C0.256282 -0.0366117 0.493719 -0.0366117 0.640165 0.109835L3.375 2.84467L6.10983 0.109835C6.25628 -0.0366113 6.49372 -0.0366112 6.64017 0.109835C6.78661 0.256282 6.78661 0.493719 6.64017 0.640165L3.90533 3.375L6.64017 6.10983C6.78661 6.25628 6.78661 6.49372 6.64017 6.64017C6.49372 6.78661 6.25628 6.78661 6.10983 6.64017L3.375 3.90533L0.640165 6.64017C0.493718 6.78661 0.256282 6.78661 0.109835 6.64017C-0.0366116 6.49372 -0.0366116 6.25628 0.109835 6.10983L2.84467 3.375L0.109835 0.640165C-0.0366117 0.493719 -0.0366117 0.256282 0.109835 0.109835Z" fill="#3E424A"/>
</svg>
